<svg width="97" height="17" viewBox="0 0 97 17" fill="none" xmlns="http://www.w3.org/2000/svg">
<path d="M0.00634766 3.67326H2.63365V15.9913H0.00634766V3.67326Z" fill="white"/>
<path d="M14.0441 12.5175C14.0441 14.9813 11.9271 16.3104 9.30477 16.3104C6.87156 16.3104 5.11969 15.2021 4.34131 13.4282L6.60343 12.0991C6.99262 13.2074 7.96611 13.873 9.30477 13.873C10.4723 13.873 11.3728 13.4789 11.3728 12.4932C11.3728 10.3009 4.82755 11.5317 4.82755 7.12384C4.82755 4.80795 6.79853 3.35519 9.27976 3.35519C11.2747 3.35519 12.9296 4.29128 13.782 5.91727L11.5679 7.17348C11.1297 6.21309 10.2783 5.76936 9.28076 5.76936C8.32628 5.76733 7.50388 6.18573 7.50388 7.07319C7.50388 9.3202 14.0441 7.95963 14.0441 12.5175Z" fill="white"/>
<path d="M24.7485 12.5175C24.7485 14.9813 22.6314 16.3114 20.0041 16.3114C17.5709 16.3114 15.819 15.2031 15.0406 13.4292L17.3078 12.0991C17.697 13.2074 18.6704 13.873 20.0091 13.873C21.1767 13.873 22.0771 13.4789 22.0771 12.4932C22.0771 10.3009 15.5319 11.5317 15.5319 7.12384C15.5319 4.80795 17.5029 3.35519 19.9841 3.35519C21.9791 3.35519 23.6339 4.29128 24.4863 5.91727L22.2722 7.17348C21.834 6.21309 20.9826 5.76936 19.9851 5.76936C19.0366 5.76936 18.2092 6.18776 18.2092 7.07521C18.2082 9.32019 24.7485 7.95963 24.7485 12.5175Z" fill="white"/>
<path d="M37.1103 3.67326V15.9913H34.482V14.4149C33.6796 15.6955 32.366 16.3104 30.7162 16.3104C27.9908 16.3104 26.0449 14.4382 26.0449 11.2359V3.67326H28.6722V10.9674C28.6722 12.8396 29.7427 13.8253 31.3975 13.8253C33.1244 13.8253 34.487 12.791 34.487 10.2795V3.67326H37.1103Z" fill="white"/>
<path d="M51.9752 3.67334V15.9914H49.3469V14.2175C48.4234 15.5233 46.9867 16.3105 45.0888 16.3105C41.7801 16.3105 39.0308 13.4739 39.0308 9.82678C39.0308 6.1564 41.7801 3.34814 45.0888 3.34814C46.9897 3.34814 48.4224 4.13632 49.3469 5.41685V3.67334H51.9752ZM49.3469 9.83184C49.3469 7.54127 47.693 5.88996 45.503 5.88996C43.3129 5.88996 41.6591 7.54127 41.6591 9.83184C41.6591 12.1224 43.3129 13.7778 45.503 13.7778C47.693 13.7778 49.3469 12.1234 49.3469 9.83184Z" fill="white"/>
<path d="M65.649 8.42771V15.9914H63.0217V8.69719C63.0217 6.82503 61.9512 5.8393 60.2964 5.8393C58.5695 5.8393 57.2068 6.87365 57.2068 9.38507V15.9873H54.5795V3.67334H57.2068V5.24969C58.0072 3.96916 59.3239 3.35321 60.9777 3.35321C63.703 3.35321 65.649 5.22538 65.649 8.42771Z" fill="white"/>
<path d="M67.3336 9.83184C67.3336 6.16146 70.083 3.35321 73.7568 3.35321C76.141 3.35321 78.209 4.60943 79.1825 6.53124L76.9144 7.86141C76.3791 6.70346 75.1875 5.96391 73.7268 5.96391C71.5857 5.96391 69.9559 7.61523 69.9559 9.83184C69.9559 12.0485 71.5857 13.6998 73.7268 13.6998C75.1875 13.6998 76.3791 12.9369 76.9634 11.8033L79.2255 13.1092C78.204 15.0553 76.138 16.3105 73.7518 16.3105C70.078 16.3105 67.3336 13.4789 67.3336 9.83184Z" fill="white"/>
<path d="M86.4282 13.873C87.8879 13.873 88.9825 13.2074 89.5668 12.3453L91.7318 13.6268C90.6133 15.2974 88.7884 16.3105 86.4042 16.3105C82.3892 16.3105 79.7859 13.5265 79.7859 9.82678C79.7859 6.1797 82.3872 3.34814 86.2091 3.34814C89.8349 3.34814 92.3121 6.3043 92.3121 9.8521C92.3037 10.2234 92.2703 10.5937 92.2121 10.9604H82.5353C82.9485 12.8873 84.4823 13.873 86.4282 13.873ZM89.6638 8.79749C89.2986 6.67914 87.7629 5.76737 86.1851 5.76737C84.2141 5.76737 82.8765 6.94964 82.5113 8.79749H89.6638Z" fill="white"/>
<path d="M1.90695 2.66946H0.729362C0.535923 2.66946 0.350407 2.59165 0.213625 2.45315C0.0768433 2.31464 0 2.1268 0 1.93092L0 0.738533C0 0.542662 0.0768433 0.354813 0.213625 0.216311C0.350407 0.0778095 0.535923 0 0.729362 0H2.63631V1.93092C2.63605 2.12671 2.55912 2.31441 2.42239 2.45285C2.28567 2.59129 2.10031 2.66919 1.90695 2.66946Z" fill="white"/>
<path d="M94.5 0C93.1193 0 92 1.11925 92 2.5C92 3.88075 93.1193 5 94.5 5C95.8807 5 97 3.88075 97 2.5C97 1.11925 95.8807 0 94.5 0ZM94.5 4.5C93.3975 4.5 92.5 3.6025 92.5 2.5C92.5 1.3975 93.3975 0.5 94.5 0.5C95.6025 0.5 96.5 1.3975 96.5 2.5C96.5 3.6025 95.6025 4.5 94.5 4.5ZM94.5615 2.81775H94.2018V3.62025H93.75V1.42775H94.5645C94.8235 1.42775 95.0232 1.4855 95.1637 1.601C95.3043 1.7165 95.3745 1.8795 95.3745 2.0905C95.3745 2.24 95.3422 2.36475 95.2775 2.46475C95.2127 2.56475 95.1147 2.64425 94.9832 2.7035L95.4575 3.5995V3.6205H94.9727L94.5615 2.81775ZM94.2018 2.45175H94.5663C94.6797 2.45175 94.7675 2.423 94.8298 2.36525C94.892 2.3075 94.923 2.228 94.923 2.1265C94.923 2.023 94.8937 1.94175 94.835 1.8825C94.7763 1.82325 94.6862 1.79375 94.5647 1.79375H94.2018V2.45175Z" fill="white"/>
</svg>
